<?xml version="1.0" encoding="utf-8"?>
<!-- Generator: Adobe Illustrator 19.0.0, SVG Export Plug-In . SVG Version: 6.00 Build 0)  -->
<svg version="1.1" id="Capa_1" xmlns="http://www.w3.org/2000/svg" xmlns:xlink="http://www.w3.org/1999/xlink" x="0px" y="0px"
	 viewBox="-383 145.4 511.6 511.6" style="enable-background:new -383 145.4 511.6 511.6;" xml:space="preserve">
<style type="text/css">
	.st0{fill:#D1CFCF;}
</style>
<g>
	<g>
		<path class="st0" d="M9.9,437.7H-8.4c-2.7,0-4.9,0.9-6.6,2.6c-1.7,1.7-2.6,3.9-2.6,6.6v91.4c0,12.6-4.5,23.3-13.4,32.3
			c-8.9,8.9-19.7,13.4-32.3,13.4h-237.5c-12.6,0-23.3-4.5-32.3-13.4c-8.9-8.9-13.4-19.7-13.4-32.3V300.7c0-12.6,4.5-23.3,13.4-32.3
			c8.9-8.9,19.7-13.4,32.3-13.4h201c2.7,0,4.9-0.9,6.6-2.6c1.7-1.7,2.6-3.9,2.6-6.6v-18.3c0-2.7-0.9-4.9-2.6-6.6
			c-1.7-1.7-3.9-2.6-6.6-2.6h-201c-22.6,0-42,8-58.1,24.1C-375,258.7-383,278-383,300.7v237.5c0,22.6,8,42,24.1,58.1
			c16.1,16.1,35.5,24.1,58.1,24.1h237.5c22.6,0,42-8,58.1-24.1C11,580.2,19,560.9,19,538.2v-91.4c0-2.7-0.9-4.9-2.6-6.6
			C14.7,438.6,12.5,437.7,9.9,437.7z"/>
		<path class="st0" d="M123.2,187.3c-3.6-3.6-7.9-5.4-12.9-5.4H-35.8c-4.9,0-9.2,1.8-12.8,5.4c-3.6,3.6-5.4,7.9-5.4,12.8
			c0,4.9,1.8,9.2,5.4,12.9l50.2,50.2l-186.1,186.2c-1.9,1.9-2.9,4.1-2.9,6.6c0,2.5,1,4.7,2.9,6.6l32.5,32.5c1.9,1.9,4.1,2.9,6.6,2.9
			s4.7-0.9,6.6-2.9L47.3,309l50.3,50.2c3.6,3.6,7.9,5.4,12.8,5.4s9.2-1.8,12.9-5.4c3.6-3.6,5.4-7.9,5.4-12.8V200.2
			C128.6,195.2,126.8,191,123.2,187.3z"/>
	</g>
</g>
</svg>
