<?xml version="1.0" encoding="utf-8"?>
<!-- Generator: Adobe Illustrator 23.0.6, SVG Export Plug-In . SVG Version: 6.00 Build 0)  -->
<svg version="1.1" xmlns="http://www.w3.org/2000/svg" xmlns:xlink="http://www.w3.org/1999/xlink" x="0px" y="0px"
	 viewBox="0 0 1100 717" style="enable-background:new 0 0 1100 717;" xml:space="preserve">
<style type="text/css">
	.st0{display:none;}
	.st1{clip-path:url(#SVGID_2_);}
	.st2{fill:#F6937D;}
	.st3{fill:#ECB10E;}
	.st4{fill:#0B8669;}
	.st5{fill:#D29BE9;}
	.st6{fill:#83D1E5;}
	.st7{fill:none;}
	.st8{fill:#1D1D1B;}
</style>
<g id="Layer_1" class="st0">
</g>
<g id="Warstwa_2">
</g>
<g id="Warstwa_3">
</g>
<g id="Warstwa_3_kopia">
</g>
<g id="Warstwa_5">
	<g>
		<defs>
			<rect id="SVGID_1_" y="3.3" width="1101.5" height="717.3"/>
		</defs>
		<clipPath id="SVGID_2_">
			<use xlink:href="#SVGID_1_"  style="overflow:visible;"/>
		</clipPath>
		<g class="st1">
			<path class="st2" d="M1084,462.1l-2.7-0.2c-2.1-1-4-1.5-7-2.5l-0.4-0.9c-5.2-3-7.8-5.7-11.6-9.9c-1.6-1.7-3.7-4.1-5.5-5.8
				c-4.7-4.7-11.4-7.8-17.8-6.8c-5.2,0.8-11.6,4.5-14,8.8c-16.4,28.7,6,60.5,23.8,81.2c6.4,7.5,7.8,16.2,4.7,25.6
				c-4.6,11-12,20.4-25,29.8c-0.4,0.4-1.8,1.7-2,2.2c-0.3,0.5,0.1,0.7-0.5,1.4l-1.8,0.6c-10.1,6-14.1,13.7-19.1,22.5
				c-2.8,7.6-2.7,17.9,1.4,26.1c4.2,7.3,11.3,11.9,16.5,14.5c27.3,12.8,61.6,32.7,79.3,68.2c2.1,3.5,4.7,5.2,7.5,8.1V451.7
				c-0.4,0.3-0.8,0.6-1.2,0.8C1100.2,457.3,1096.3,460.8,1084,462.1z"/>
			<path class="st3" d="M1032.7,393.8c-7-3.1-12.7-5.2-19.3-7.8c-16.4-6.5-34.3-3.6-44.2,9c-9.8,12.7-10.9,30.2-4.9,44.3
				c2.1,4.8,3.6,9.8,5.8,14.6c10,22.1,19.7,45.8,26.5,71.1c2.1,9.3,1.4,16.3-0.7,25.8c-5.5,17.3-17.2,29.3-37.8,40.2
				c-4.8,2.6-10.8,6.2-16.2,8.7C919.6,610,896,621.6,896,647.2c-0.9,15.5,8,32.4,23.3,44.4c11.2,8.8,25.7,12.9,39.1,17.4l0.2,0.1
				c12.9,4.3,23.1,9,33.6,19.7l117.9-0.2v-0.2c-3.4-3.5-4.9-7.5-7.5-11.9c-17.5-35-51-54.4-78.1-67.1c-5.5-2.7-13.3-6.9-17.8-14.7
				c-4.4-8.8-4.9-16.8-1.8-25c0,0,0.2-1.6,0.2-1.6c2.5-5.4,5.8-9,9.7-13.5c5.4-6.2,11.9-12.3,18.4-17.6c3.1-2.5,6.4-4.3,9.1-7.3
				c4.4-4.7,8.5-11.4,10.6-17.6c2.9-8.7,1.9-19.3-4-26.2c-18.3-21.1-39.3-50-24.8-80c2.4-5.1,7.8-8.2,14-9.9c6.9-2,14,2.2,19.2,7.4
				c1.8,1.8,4.2,3.4,5.8,5.1c3.7,4.1,6.2,7.2,11,10c3,1,5.9,2.6,7.9,3.6c10.2,1.6,18.1-5.2,25.9-10.8c0.8-0.6,1.6-1.1,2.4-1.7
				l-0.1-40C1083.3,416.7,1057.4,405,1032.7,393.8z"/>
			<path class="st4" d="M982.2,199.2c-35.6,30.6-72.9,41.7-110.8,33.2c-11.8-2.7-23.2-7-34.3-11.1c-9.1-3.4-18.4-6.9-27.9-9.5
				c-23.2-6.3-46.8-8.4-64.8-9.5c-5.8-0.4-11.2-0.6-16.4-0.7c-48.6-1.3-88.7,9.7-126.2,34.5c-16.2,10.7-31.8,23.1-46.8,35.1
				c-16.9,13.5-34.4,27.4-52.8,39c-25.8,16.2-53.1,30.7-79.6,44.7c-12.1,6.4-24.7,13.1-36.9,19.8l-0.5,0.3
				c-48,26.2-101,42.8-152.2,58.8c-12.4,3.9-25.3,7.9-37.9,12c-18.7,6.1-37.7,12.2-56.1,18.2c-12.3,4-24.6,8-36.9,11.9
				C62.2,489,22.4,513.6-13.2,547.2l2.7,181H560c-8.2-11.7-14.4-26.3-18.6-43.4c-3-12.3-4.6-30.3,4.8-46.1
				c12.1-20.5,35.5-33,71.5-38.3c7.7-1.1,15.5-1.8,23.1-2.5c10-0.9,20.4-1.9,30.5-3.8c9.8-1.9,17.3-4.3,23.7-7.5
				c7.8-4,14.2-10,18.9-14.9c11.3-11.7,22.6-22.8,36.3-31.3c14.4-8.9,30.1-13.5,47.7-18.2l0.4-0.1c12.8-3.4,27.3-7.3,35.3-18.6
				c9.8-13.9,1.4-29.9-7.3-40.9c-2.6-3.3-5.4-6.6-8-9.8c-7.7-9.3-15.6-18.8-21.5-29.7c-8.4-15.5-14.1-31.8-16.8-48.4
				c-5.1-30.8,3.4-58.8,22.6-74.8c25.3-21,61.5-18.6,86.6-15c13.7,2,27.5,4.7,40.8,7.4c20.7,4.1,42.1,8.4,63.5,9.8
				c34.9,2.3,68.6-4,97.4-18.2c6.6-3.2,13-7,19.1-11.1l2-274.3c-16.8,39.2-34.6,74-54.4,106C1039.2,134.2,1014.1,171.9,982.2,199.2z
				"/>
			<path class="st5" d="M1056.2,350.3c-3.7-0.6-8.5-1.2-12.2-1.8c-43.1-6.8-88.5-13.3-128.4,7.1c-14.8,7.9-24.9,23.6-26.9,40.7
				c-1,14.7,2.9,29.8,6.7,42c3.3,9.2,7.8,17.6,12,26.4c10.3,21.4,20.1,43.4,15.8,68.9c-1.8,7.3-5.2,14.1-13.1,19.8
				c-6.2,4.1-12.2,6.8-18.2,9.8l-2,0.9c-14.3,4.6-26.2,6.1-40.4,9.1c-14.2,3-28.5,6.3-42.7,10.9c-9.5,3.2-19.2,8-26.9,13.8
				c-9.2,6.9-13.4,11.8-16.9,19.8c-1,3-2.3,6.9-3.3,8.9c-8.8,28.1,6.6,53.5,20.9,77.3c5.1,8.4,9.1,16.7,13.1,25.3l196.9-1
				c-9.8-9.3-20.7-13.5-32.8-17.5l-0.2-0.1c-13.5-4.5-27.4-9.2-38.9-18.2c-15.8-12.4-24.7-29.5-23.8-45.6
				c0-26.8,24.6-38.3,46.4-48.3c5.4-2.5,10.5-4.9,15.2-7.4c20.1-10.6,32.9-24.5,38.2-41.1c2-9.1,3-17,1-25.9
				c-6.7-25-17-47.8-27-69.8c-2.2-4.8-4.4-9.6-6.5-14.4c-6.3-14.8-4-31.5,6.2-44.8c10.5-13.4,27.7-17.4,44.9-10.5
				c6.7,2.6,13.7,5.7,20.4,8.7c24.6,11.1,50,22.5,76.2,15.3v-52.8C1089.8,356.9,1073.2,353.9,1056.2,350.3z"/>
			<path class="st6" d="M993.3,304.1c-21.6-1.4-43-5.7-63.8-9.9c-13.3-2.7-27.1-5.4-40.7-7.4c-26.8-3.9-60.6-5.7-85,14.6
				c-18.7,15.5-26.9,42.8-21.9,72.9c2.7,16.4,8.3,32.5,16.6,47.8c5.8,10.7,13.7,20.2,21.3,29.3c2.7,3.2,5.4,6.5,8.1,9.9
				c9.1,11.5,17.8,28.4,7.4,43.3c-8.4,11.9-23.3,15.9-36.4,19.4l-0.4,0.1c-17.5,4.6-33,9.2-47.2,18c-13.5,8.4-24.7,19.5-35.9,31
				c-4.8,4.9-11.3,11.1-19.4,15.2c-6.5,3.3-14.2,5.8-24.2,7.7c-10.2,1.9-20.6,2.9-30.7,3.8c-7.6,0.7-15.4,1.4-23,2.5
				c-35.3,5.2-58.3,17.4-70.1,37.4c-9,15.2-7.5,32.6-4.6,44.5c4.2,17.4,10.7,32.2,19.1,43.9h230.4c-3.9-8.3-9-16.6-13.8-24.7
				c-14.6-24.2-29.6-49.3-20.5-78.2l0.1-0.1c1-2.1,2-4,3-7c4.6-10.4,11.7-16.6,18.7-21.9c7.9-5.9,16-10.1,25.7-13.4
				c14.3-4.6,29.1-7.7,43.3-10.7c14.2-3,28.9-6.1,43.1-10.6c6-3,12.1-6.1,18.1-10.1c7.3-5.2,10.1-12.9,11.8-19.7
				c4.2-24.8-6.3-46.6-16.5-67.7c-4.3-8.9-8.7-18-12-27.3c-3.8-12.5-7.2-26.1-6.2-41.1c2.1-17.8,12.6-33.3,28-41.5
				c40.6-20.8,85.5-13.7,128.8-6.9c3.7,0.6,7.4,1.2,11.2,1.7c16.9,3.6,35,6.8,54.1,4.8v-78.4c-5.8,3.8-11.9,7.4-18.2,10.4
				C1062.5,300,1028.5,306.4,993.3,304.1z"/>
			<path class="st7" d="M1112-7c-17.3,41.1-35.7,77.2-56.2,110.4c-18.2,29.6-43.2,67.1-74.9,94.3c-35.1,30.1-71.8,41.1-109,32.8
				c-11.7-2.6-23-6.9-34-11c-9.1-3.4-18.5-7-28.1-9.6c-23.4-6.3-47.1-8.4-65.2-9.5c-5.9-0.4-11.2-0.6-16.4-0.7
				c-49-1.3-89.5,9.8-127.4,34.9c-16.3,10.8-31.9,23.2-46.9,35.2c-16.9,13.4-34.3,27.3-52.6,38.8c-25.7,16.1-53,30.6-79.4,44.6
				c-12.1,6.4-24.7,13.1-36.9,19.8l-0.5,0.3c-47.9,26.1-100.7,42.6-151.8,58.7c-12.4,3.9-25.3,7.9-37.9,12.1
				c-18.7,6.1-37.7,12.2-56.1,18.2c-12.3,4-24.6,8-36.9,11.9C61.2,487.2,20.9,512-14.9,546l-0.3,0.3l2.7,183.9h1005
				c0.6,0.6,1.1,1.2,1.7,1.8l1.5-1.4c-0.1-0.2-0.3-0.3-0.4-0.5h116.6V730l1.4-1.4l-0.3-0.3c-0.4-0.4-0.7-0.7-1.1-1.1V450.3
				c0.1-0.1,0.1-0.1,0.2-0.2l-0.2-0.3V410c0.5-0.1,0.9-0.3,1.4-0.4l-0.6-1.9c-0.2,0.1-0.5,0.1-0.7,0.2v-52.4
				c0.4-0.1,0.9-0.1,1.3-0.2l-0.3-2c-0.3,0-0.7,0.1-1,0.1v-78.6l0-1c0.5-0.3,0.9-0.6,1.4-0.9l-1.2-1.7c-0.1,0-0.1,0.1-0.2,0.1
				l2-283.1L1112-7z M1109.8,725.1c-2.8-3-5.5-6-7.6-9.5c-17.7-35.5-51.4-54.8-78.8-67.6c-5.2-2.6-11.7-6.5-15.8-13.8
				c-4.1-8.2-4.8-17-2-24.5c1.9-5,6.1-10.3,9.6-14.3c6.7-7.7,15.3-13.5,22.8-20.3c6.6-6,13.6-13.8,16.5-22.5
				c3.2-9.4,1.1-20-5.3-27.4c-17.9-20.7-39.7-51.5-23.3-80.2c2.4-4.4,6.6-7.2,11.8-7.9c6.5-0.9,13.4,1.4,18.1,6.1
				c1.8,1.8,3.4,3.6,4.9,5.3c3.8,4.2,7.4,8.2,12.6,11.1l0.2,0.1c3,1,4.9,2,7,3l0.3,0.1c11.1,1.9,19.6-4.3,27.8-10.2
				c0.4-0.3,0.8-0.6,1.2-0.8V725.1z M1109,448.8c-0.1,0.3-0.3,0.5-0.4,0.8c-1,1.5-2.5,2.5-4,3.5c-6.7,4.4-14.3,8.8-22.3,7.7
				c-15.2-2.2-22-22.7-37-25.8c-10-2.1-20.3,5.1-24.4,14.4c-4.1,9.3-3.3,20.2-0.7,30.1c3.3,12.7,9.4,24.7,17.7,34.9
				c5.6,6.9,12.5,13.4,14.8,22.1c2.5,9.1-0.8,19.1-6.3,26.7c-3.8,5.2-8.6,9.6-13.6,13.6c-2.1,1.7-4.5,3.3-6.3,5.3
				c-2,2.2-4.2,3.9-6.5,5.8c-2,1.7-3.9,3.5-5.7,5.3c-3.6,3.8-6.7,8-8.8,12.7c-4.3,9.3-4.8,20.9,0.5,29.7
				c5.9,9.7,17.3,14.3,27.5,19.3c32,15.8,58.9,41.8,75.7,73.4c-35.7-0.1-71.5-0.2-107.2-0.3c-2.5,0-5,0-7.4-0.7
				c-3.6-1.1-6.6-3.8-9.6-6.1c-12.5-9.3-28.2-12.6-42.7-18.4c-14.6-5.9-28.5-14.7-37.3-27.8c-8.7-13.1-11.4-30.9-3.9-44.8
				c6-11.1,17.3-18.2,28.5-23.9c12.9-6.6,26.4-12.2,38.5-20.2c12.1-8,23-18.8,27.7-32.5c7.5-21.7-1.7-45.3-10.7-66.4
				c-5.3-12.4-10.6-24.7-15.9-37.1c-3.7-8.7-7.5-17.6-8.1-27c-1.1-17.5,11-35.6,28.2-38.9c10.6-2,21.4,1.4,31.4,5.4
				c14.5,5.9,28.3,13.2,43.1,18.1c14.8,4.9,31,7.2,46,2.8c0.1,10.6,0.1,21.2,0.2,31.8C1110,444.5,1110,446.9,1109,448.8z
				 M1109.8,408.5c-26.2,7.2-51.6-4.2-76.2-15.3c-6.7-3-13.7-6.1-20.4-8.7c-17.2-6.9-34.4-2.9-44.9,10.5
				c-10.2,13.3-12.5,30-6.2,44.8c2.1,4.8,4.3,9.6,6.5,14.4c10,22,20.3,44.8,27,69.8c2,8.9,1,16.8-1,25.9
				c-5.3,16.7-18.1,30.5-38.2,41.1c-4.7,2.6-9.8,4.9-15.2,7.4c-21.7,10.1-46.4,21.5-46.4,48.3c-0.9,16.1,7.9,33.2,23.8,45.6
				c11.4,9,25.4,13.6,38.9,18.2l0.2,0.1c12.1,4,22.9,8.2,32.8,17.5H795.2c-4-8.7-9.3-17.4-14.3-25.8c-14.3-23.8-29.1-48.4-20.3-76.5
				c1-2,2-4.1,3-7.1c3.5-8,8.7-14,18-21c7.7-5.8,15.7-9.9,25.1-13.1c14.2-4.6,28.9-7.7,43.1-10.7c14.3-3,29-6.1,43.3-10.7l0.1-0.1
				c6-3,12.3-6.1,18.4-10.3c7.9-5.6,10.8-13.7,12.6-21c4.4-25.5-6.3-47.6-16.6-69c-4.2-8.8-8.6-17.9-11.9-27.1
				c-3.8-12.2-7.1-25.6-6.1-40.3c2-17.1,12.1-32,26.9-39.9c40-20.5,84.5-13.5,127.6-6.7c3.7,0.6,7.5,1.2,11.1,1.7
				c17,3.6,35.1,6.9,54.5,4.9V408.5z M1109.8,353.6c-19.1,2-37.2-1.2-54.1-4.8c-3.7-0.6-7.4-1.1-11.2-1.7
				c-43.4-6.8-88.3-13.8-128.8,6.9c-15.4,8.2-25.9,23.7-28,41.5c-1.1,15,2.3,28.6,6.2,41.1c3.3,9.3,7.7,18.5,12,27.3
				c10.2,21.1,20.7,42.9,16.5,67.7c-1.7,6.8-4.4,14.5-11.8,19.7c-6,4-12.2,7.1-18.1,10.1c-14.2,4.5-28.9,7.6-43.1,10.6
				c-14.3,3-29,6.1-43.3,10.7c-9.7,3.2-17.9,7.5-25.7,13.4c-7,5.2-14.1,11.5-18.7,21.9c-1,3-2,4.9-3,7l-0.1,0.1
				c-9.1,29,5.9,54,20.5,78.2c4.9,8.1,9.9,16.5,13.8,24.7H562.5c-8.4-11.7-14.8-26.5-19.1-43.9c-2.9-11.9-4.5-29.3,4.6-44.5
				c11.8-19.9,34.7-32.1,70.1-37.4c7.6-1.1,15.5-1.8,23-2.5c10.1-0.9,20.5-1.9,30.7-3.8c10-1.9,17.7-4.4,24.2-7.7
				c8.1-4.2,14.6-10.3,19.4-15.2c11.2-11.6,22.4-22.6,35.9-31c14.1-8.8,29.7-13.3,47.2-18l0.4-0.1c13.1-3.5,28-7.4,36.4-19.4
				c10.5-14.9,1.8-31.8-7.4-43.3c-2.6-3.3-5.4-6.6-8.1-9.9c-7.6-9.2-15.5-18.7-21.3-29.3c-8.3-15.3-13.9-31.3-16.6-47.8
				c-5-30.1,3.2-57.4,21.9-72.9c24.4-20.2,58.2-18.4,85-14.6c13.6,2,27.4,4.7,40.7,7.4c20.8,4.2,42.2,8.5,63.8,9.9
				c35.2,2.3,69.3-4.1,98.4-18.4c6.2-3.1,12.3-6.6,18.2-10.4V353.6z M1109.9,272.7c-6.1,4.1-12.5,7.8-19.1,11.1
				c-28.8,14.2-62.5,20.5-97.4,18.2c-21.4-1.4-42.8-5.7-63.5-9.8c-13.3-2.7-27.1-5.4-40.8-7.4c-25-3.6-61.3-6-86.6,15
				c-19.3,16-27.7,43.9-22.6,74.8c2.8,16.7,8.4,32.9,16.8,48.4c5.9,10.9,13.8,20.4,21.5,29.7c2.7,3.2,5.4,6.5,8,9.8
				c8.7,11,17,27,7.3,40.9c-8,11.3-22.5,15.2-35.3,18.6l-0.4,0.1c-17.6,4.7-33.4,9.3-47.7,18.2c-13.7,8.5-24.9,19.7-36.3,31.3
				c-4.7,4.8-11,10.8-18.9,14.9c-6.3,3.3-13.9,5.6-23.7,7.5c-10.1,1.9-20.4,2.9-30.5,3.8c-7.6,0.7-15.4,1.4-23.1,2.5
				c-36,5.3-59.4,17.9-71.5,38.3c-9.4,15.8-7.8,33.8-4.8,46.1c4.2,17.1,10.4,31.7,18.6,43.4H-10.5l-2.7-181
				C22.4,513.6,62.2,489,102.1,476c12.3-4,24.6-8,36.9-11.9c18.4-5.9,37.4-12.1,56.1-18.2c12.6-4.1,25.4-8.1,37.9-12
				c51.2-16.1,104.2-32.7,152.2-58.8l0.5-0.3c12.2-6.7,24.8-13.4,36.9-19.8c26.4-14,53.8-28.5,79.6-44.7
				c18.5-11.6,35.9-25.5,52.8-39c15-12,30.6-24.4,46.8-35.1c37.5-24.8,77.6-35.8,126.2-34.5c5.2,0.1,10.5,0.4,16.4,0.7
				c18,1.1,41.7,3.2,64.8,9.5c9.5,2.6,18.9,6.1,27.9,9.5c11,4.2,22.5,8.5,34.3,11.1c37.9,8.5,75.2-2.7,110.8-33.2
				c31.9-27.4,57-65,75.3-94.7c19.8-32.1,37.6-66.8,54.4-106L1109.9,272.7z"/>
		</g>
		<g class="st1">
			<path class="st7" d="M1055.4,350.8c-3.7-0.6-7.4-1.1-11.1-1.7c-43.1-6.8-87.6-13.7-127.6,6.7c-14.8,7.9-24.9,22.8-26.9,39.9
				c-1,14.7,2.3,28,6.1,40.3c3.3,9.2,7.6,18.3,11.9,27.1c10.3,21.4,21,43.5,16.6,69c-1.8,7.3-4.7,15.4-12.6,21
				c-6.2,4.1-12.4,7.2-18.4,10.3l-0.1,0.1c-14.3,4.6-29.1,7.7-43.3,10.7c-14.2,3-28.9,6.1-43.1,10.7c-9.5,3.2-17.4,7.3-25.1,13.1
				c-9.2,6.9-14.5,13-18,21c-1,3-2,5.1-3,7.1c-8.8,28.1,6,52.7,20.3,76.5c5.1,8.4,10.3,17.1,14.3,25.8h195.3
				c-9.8-9.3-20.7-13.5-32.8-17.5l-0.2-0.1c-13.5-4.5-27.4-9.2-38.9-18.2c-15.8-12.4-24.7-29.5-23.8-45.6
				c0-26.8,24.6-38.3,46.4-48.3c5.4-2.5,10.5-4.9,15.2-7.4c20.1-10.6,32.9-24.5,38.2-41.1c2-9.1,3-17,1-25.9
				c-6.7-25-17-47.8-27-69.8c-2.2-4.8-4.4-9.6-6.5-14.4c-6.3-14.8-4-31.5,6.2-44.8c10.5-13.4,27.7-17.4,44.9-10.5
				c6.7,2.6,13.7,5.7,20.4,8.7c24.6,11.1,50,22.5,76.2,15.3v-52.8C1090.5,357.7,1072.4,354.4,1055.4,350.8z"/>
			<path class="st7" d="M993.3,304.1c-21.6-1.4-43-5.7-63.8-9.9c-13.3-2.7-27.1-5.4-40.7-7.4c-26.8-3.9-60.6-5.7-85,14.6
				c-18.7,15.5-26.9,42.8-21.9,72.9c2.7,16.4,8.3,32.5,16.6,47.8c5.8,10.7,13.7,20.2,21.3,29.3c2.7,3.2,5.4,6.5,8.1,9.9
				c9.1,11.5,17.8,28.4,7.4,43.3c-8.4,11.9-23.3,15.9-36.4,19.4l-0.4,0.1c-17.5,4.6-33,9.2-47.2,18c-13.5,8.4-24.7,19.5-35.9,31
				c-4.8,4.9-11.3,11.1-19.4,15.2c-6.5,3.3-14.2,5.8-24.2,7.7c-10.2,1.9-20.6,2.9-30.7,3.8c-7.6,0.7-15.4,1.4-23,2.5
				c-35.3,5.2-58.3,17.4-70.1,37.4c-9,15.2-7.5,32.6-4.6,44.5c4.2,17.4,10.7,32.2,19.1,43.9h230.4c-3.9-8.3-9-16.6-13.8-24.7
				c-14.6-24.2-29.6-49.3-20.5-78.2l0.1-0.1c1-2.1,2-4,3-7c4.6-10.4,11.7-16.6,18.7-21.9c7.9-5.9,16-10.1,25.7-13.4
				c14.3-4.6,29.1-7.7,43.3-10.7c14.2-3,28.9-6.1,43.1-10.6c6-3,12.1-6.1,18.1-10.1c7.3-5.2,10.1-12.9,11.8-19.7
				c4.2-24.8-6.3-46.6-16.5-67.7c-4.3-8.9-8.7-18-12-27.3c-3.8-12.5-7.2-26.1-6.2-41.1c2.1-17.8,12.6-33.3,28-41.5
				c40.6-20.8,85.5-13.7,128.8-6.9c3.7,0.6,7.4,1.2,11.2,1.7c16.9,3.6,35,6.8,54.1,4.8v-78.4c-5.8,3.8-11.9,7.4-18.2,10.4
				C1062.5,300,1028.5,306.4,993.3,304.1z"/>
			<path class="st7" d="M1080.9,462.7l-0.3-0.1c-2.1-1-4-2-7-3l-0.2-0.1c-5.2-3-8.8-6.9-12.6-11.1c-1.6-1.7-3.2-3.5-4.9-5.3
				c-4.7-4.7-11.6-7.1-18.1-6.1c-5.2,0.8-9.4,3.6-11.8,7.9c-16.4,28.7,5.4,59.6,23.3,80.2c6.4,7.5,8.4,18,5.3,27.4
				c-4.6,11-12.7,20.5-25.7,30c-0.4,0.4-0.6,0.8-0.8,1.2c-0.3,0.5-0.6,1.2-1.2,1.8l-0.2,0.2c-10.1,6-16,15.1-21,24
				c-2.8,7.6-2.1,16.3,2,24.5c4.2,7.3,10.6,11.2,15.8,13.8c27.3,12.8,61,32.1,78.8,67.6c2.1,3.5,4.7,6.5,7.6,9.5V451.7
				c-0.4,0.3-0.8,0.6-1.2,0.8C1100.4,458.5,1091.9,464.6,1080.9,462.7z"/>
			<path class="st7" d="M6.7,531.3c-0.3,0.4-0.7,0.7-1,1.1c0.1,0,0.2-0.1,0.4-0.1c2.5-0.6,5-1.2,7.4-2c0.2-0.1,0.3-0.1,0.4-0.2
				c0.5-0.2,1-0.5,1.5-0.7c1-0.5,2-1.1,3-1.7c0.2-0.1,1.7-1.3,1.7-1.3c0.6-0.6,1.3-1.2,1.9-1.8c0.1-0.1,0.2-0.2,0.2-0.2
				c-2.3-0.5-4.8-0.9-7.2-1.2c-0.1,0.1-0.2,0.2-0.4,0.3C12,526,9.3,528.6,6.7,531.3z"/>
			<path class="st7" d="M1102.2,250.4c-2.1-0.1-4.2-0.7-6-1.7c-2.6-1.4-4.8-4.5-5.6-7.3c-0.7-2.7-0.6-7.1,1.2-9.4
				c1.8-2.4,3.7-4.8,5.6-7.1c0.3-0.4,0.6-0.8,0.8-1.2c0.6-0.9,1.2-1.9,1.7-2.9c0.2-0.4,0.5-0.8,0.7-1.2c-3.2-1.9-5.4-5.2-5.4-10
				c0-50.7,3.9-101.7,2.4-152.5c-3.7,9.3-7,18.8-11.6,27.7c-10.7,20.6-27.6,35.9-44.2,51.4c-0.6,7.8-0.4,15.6-1.5,23.3
				c-1.4,9.6-5.3,18.8-12,26c-5.2,5.6-12.2,8.9-19.6,10.7c-3,0.7-6,1.3-8.9,2.2c-0.6,0.2-1,0.4-1.1,0.4c-0.5,0.3-1.1,0.5-1.6,0.8
				c-1.7,1-2,1.3-3.1,2.4c-5.1,4.8-11,4.3-15.2,1.3c-7.3,5.9-15,11.4-22.7,16.5c-10.5,7-22.1,12.9-34.6,15.3
				c-15.6,3-30.6,1-46.2-0.5c-37.2-3.5-74.6-3.1-111.7-6.7c-6.6-0.6-12.2-5.1-12.2-12.2c0-2.5,0.8-4.8,2.1-6.8c-1,0-2.1,0-3.1,0
				c-31.1,0.6-61.5,7.5-91.4,15.5c-2.9,0.8-5.4,0.6-7.6-0.3c-10.3,10.3-24.7,15.9-38.8,21.1c-9.8,3.6-19,7.6-28.2,14.1
				c-10.1,7.1-19.4,15.5-29.4,22.7c-35.4,25.4-76,43-110.5,69.7c-17.7,13.7-34.4,29-53.4,40.9c-18.8,11.7-39.6,19.2-61.1,23.9
				c-20.8,4.6-42,7.1-62.8,11.9c-21.9,5.1-42,14.8-63.4,21.1c-11.5,3.4-23.1,6.3-34.6,9.3c-10.9,2.8-22.3,5.3-32.7,9.6
				c-17.4,7.3-32.6,18.7-51.8,18.3c0,0.1-0.1,0.1-0.1,0.2c-7.4,9-18.2,14.7-28.8,19.3c-0.8,3.1-2.8,5.9-5.8,7.4
				c0.5,2.1,0.5,4.4,0.2,6.5C45.5,546,21.3,557.1-2.5,557c1.4,10.2,1.6,20.7,2.4,31c0.8,10.5,3.9,22.6,6.3,34.2
				c2.7,13.3,5.5,27.2,4.3,40.8C9.7,674.1,5.5,682.7,0,692.2c-2.5,4.3-5.2,8.7-7.2,13.3c0.1-0.1-0.6,1.8-0.7,2
				c-0.2,0.6-0.4,1.3-0.5,1.9c0,0,0,0,0,0c0.3-1.2,0.2-0.5,0.1,0.3c1.6,4.1,0.9,8.1-1.3,11.1c3.7,0.2,7.5,0.4,11.2,0.6
				c62.5,3.4,124.4-5.5,186.5-9.9c64.3-4.6,128.7-0.4,193.1-0.4c7.4,0,11.3,5.3,11.7,11c13.6-2,27.2,0,41.1,0.3
				c15.7,0.3,31.2-5.2,46.9-4.1c11.9,0.8,23.1,5.3,34.6,8c2.5,0.6,5,1.2,7.5,1.5c-0.2-0.1,2.6,0.2,3,0.2c0.1,0,0.3,0,0.4,0h2.9
				c0.3,0,0.7,0,1,0c0.4,0,0.6,0,0.8,0c0.2-0.1,0.4-0.1,0.7-0.2c0.8-0.3,1.7-0.4,2.6-0.7c-0.5,0.1,1.3-0.9,1.7-1.1
				c0.5-0.5,1.9-1.9,2.2-2.2c4.4-5,12.8-4.4,17.3,0c1.3,1.3,2.2,2.7,2.7,4.2h1.7c-8.2-11.7-14.4-26.3-18.6-43.4
				c-3-12.3-4.6-30.3,4.8-46.1c12.1-20.5,35.5-33,71.5-38.3c7.7-1.1,15.5-1.8,23.1-2.5c10-0.9,20.4-1.9,30.5-3.8
				c9.8-1.9,17.3-4.3,23.7-7.5c7.8-4,14.2-10,18.9-14.9c11.3-11.7,22.6-22.8,36.3-31.3c14.4-8.9,30.1-13.5,47.7-18.2l0.4-0.1
				c12.8-3.4,27.3-7.3,35.3-18.6c9.8-13.9,1.4-29.9-7.3-40.9c-2.6-3.3-5.4-6.6-8-9.8c-7.7-9.3-15.6-18.8-21.5-29.7
				c-8.4-15.5-14.1-31.8-16.8-48.4c-5.1-30.8,3.4-58.8,22.6-74.8c25.3-21,61.5-18.6,86.6-15c13.7,2,27.5,4.7,40.8,7.4
				c20.7,4.1,42.1,8.4,63.5,9.8c34.9,2.3,68.6-4,97.4-18.2c6.6-3.2,13-7,19.1-11.1l0-1.8C1099.1,270,1096.6,257,1102.2,250.4z"/>
			<path class="st7" d="M1100.5,716.6c-17.5-35-50.8-54.1-77.9-66.7c-5.5-2.7-12.3-6.8-16.7-14.7c-4.4-8.8-5.2-18.2-2.1-26.3
				l0.1-0.1c5.1-9.1,11.2-18.4,21.6-24.7c0.3-0.4,0.5-0.7,0.7-1.2c0.3-0.5,0.6-1.2,1.2-1.8l0.1-0.1c12.7-9.2,20.7-18.5,25.1-29.1
				c2.9-8.7,1-18.5-4.9-25.4c-18.3-21.1-40.6-52.7-23.5-82.5c2.7-4.9,7.4-8.1,13.3-9c7.1-1,14.7,1.6,19.8,6.7c1.8,1.8,3.4,3.6,5,5.4
				c3.7,4.1,7.1,7.9,12,10.7c3,1,5.1,2,7,3c10.2,1.6,18.3-4.2,26.1-9.8c0.8-0.6,1.6-1.1,2.4-1.7v-38.6c-26.7,7.1-52.3-4.4-77.1-15.5
				c-7-3.1-13.6-6.1-20.3-8.7c-16.4-6.5-32.7-2.8-42.6,9.9c-9.8,12.7-12,28.7-6,42.7c2.1,4.8,4.3,9.6,6.5,14.4
				c10,22.1,20.4,44.9,27.1,70.2c2.1,9.3,1.1,17.5-1,26.9c-5.5,17.3-18.6,31.5-39.2,42.4c-4.8,2.6-9.9,5-15.3,7.5
				c-22.2,10.3-45.2,21-45.2,46.6c-0.9,15.5,7.7,31.9,23,44c11.2,8.8,24.9,13.4,38.2,17.8l0.2,0.1c12.9,4.3,24.5,8.8,35,19.5h116.5
				V728C1106.5,724.5,1103.1,720.9,1100.5,716.6z"/>
			<path class="st8" d="M1112.9,728.3c-0.4-0.4-0.7-0.7-1.1-1.1V450.3c0.1-0.1,0.1-0.1,0.2-0.2l-0.2-0.3V410
				c0.5-0.1,0.9-0.3,1.4-0.4l-0.6-1.9c-0.2,0.1-0.5,0.1-0.7,0.2v-52.4c0.4-0.1,0.9-0.1,1.3-0.2l-0.3-2c-0.3,0-0.7,0.1-1,0.1v-78.6
				l0-1c0.5-0.3,0.9-0.6,1.4-0.9l-1.2-1.7c-0.1,0-0.1,0.1-0.2,0.1l0-0.4c-0.3,0-0.5,0-0.8,0c-0.4,0-0.8,0-1.2-0.1l0,1.8
				c-6.1,4.1-12.5,7.8-19.1,11.1c-28.8,14.2-62.5,20.5-97.4,18.2c-21.4-1.4-42.8-5.7-63.5-9.8c-13.3-2.7-27.1-5.4-40.8-7.4
				c-25-3.6-61.3-6-86.6,15c-19.3,16-27.7,43.9-22.6,74.8c2.8,16.7,8.4,32.9,16.8,48.4c5.9,10.9,13.8,20.4,21.5,29.7
				c2.7,3.2,5.4,6.5,8,9.8c8.7,11,17,27,7.3,40.9c-8,11.3-22.5,15.2-35.3,18.6l-0.4,0.1c-17.6,4.7-33.4,9.3-47.7,18.2
				c-13.7,8.5-24.9,19.7-36.3,31.3c-4.7,4.8-11,10.8-18.9,14.9c-6.3,3.3-13.9,5.6-23.7,7.5c-10.1,1.9-20.4,2.9-30.5,3.8
				c-7.6,0.7-15.4,1.4-23.1,2.5c-36,5.3-59.4,17.9-71.5,38.3c-9.4,15.8-7.8,33.8-4.8,46.1c4.2,17.1,10.4,31.7,18.6,43.4h-1.7
				c0.2,0.7,0.4,1.3,0.6,2h433.6c0.6,0.6,1.1,1.2,1.7,1.8l1.5-1.4c-0.1-0.2-0.3-0.3-0.4-0.5h116.6V730l1.4-1.4L1112.9,728.3z
				 M1109.8,725.1c-2.8-3-5.5-6-7.6-9.5c-17.7-35.5-51.4-54.8-78.8-67.6c-5.2-2.6-11.7-6.5-15.8-13.8c-4.1-8.2-4.8-17-2-24.5
				c0.9-2.5,2.8-4.9,4.3-7.1c1.6-2.4,3.3-4.8,5.2-7c1.9-2.3,4.1-4.4,6.4-6.3c1.7-1.4,3.6-2.7,5.3-4.2c1.5-1.3,2.6-2.9,4.1-4.1
				c1.6-1.2,3.2-2.5,4.7-3.8c2.9-2.4,5.6-5,8.1-7.8c4.5-5,8.2-10.6,10.8-16.8c3.2-9.4,1.1-20-5.3-27.4
				c-17.9-20.7-39.7-51.5-23.3-80.2c2.4-4.4,6.6-7.2,11.8-7.9c6.5-0.9,13.4,1.4,18.1,6.1c1.8,1.8,3.4,3.6,4.9,5.3
				c3.8,4.2,7.4,8.2,12.6,11.1l0.2,0.1c2.8,1.7,4.7,2.9,7,3l0.3,0.1c11.1,1.9,19.6-4.3,27.8-10.2c0.4-0.3,0.8-0.6,1.2-0.8V725.1z
				 M1109,448.8c-0.1,0.3-0.3,0.5-0.4,0.8c-1,1.5-2.5,2.5-4,3.5c-6.7,4.4-14.3,8.8-22.3,7.7c-15.2-2.2-22-22.7-36.9-25.8
				c-10-2.1-20.3,5-24.4,14.4c-4.1,9.3-3.3,20.2-0.7,30c3.3,12.7,9.4,24.7,17.7,34.9c5.6,6.9,12.5,13.4,14.8,22
				c2.5,9.2-0.7,19.3-6.4,27c-3.8,5.2-8.6,9.6-13.6,13.6c-1.8,1.4-3.8,2.6-5.5,4.2c-2.5,2.4-4.9,4.8-7.5,7c-2,1.7-3.9,3.4-5.7,5.3
				c-3.6,3.8-6.6,8-8.8,12.7c-4.3,9.3-4.7,20.8,0.7,29.5c5.9,9.7,17.3,14.3,27.5,19.3c32,15.8,58.9,41.8,75.6,73.3
				c-35.7-0.1-71.5-0.2-107.2-0.3c-2.5,0-5,0-7.4-0.7c-3.6-1.1-6.6-3.8-9.6-6.1c-12.5-9.3-28.2-12.6-42.7-18.4
				c-14.6-5.9-28.5-14.7-37.3-27.8c-8.7-13.1-11.4-30.9-3.9-44.8c6-11.1,17.3-18.2,28.5-23.9c12.9-6.6,26.4-12.2,38.5-20.2
				c12.1-8,23-18.8,27.7-32.5c7.5-21.7-1.7-45.3-10.7-66.4c-5.3-12.4-10.6-24.7-15.9-37.1c-3.7-8.7-7.5-17.6-8.1-27
				c-1.1-17.5,11-35.6,28.2-38.9c10.6-2,21.4,1.4,31.4,5.4c14.5,5.9,28.3,13.2,43.1,18.1s31,7.2,46,2.8c0.1,10.6,0.1,21.2,0.2,31.8
				C1110,444.5,1110,446.9,1109,448.8z M1109.8,408.5c-26.2,7.2-51.6-4.2-76.2-15.3c-6.7-3-13.7-6.1-20.4-8.7
				c-17.2-6.9-34.4-2.9-44.9,10.5c-10.2,13.3-12.5,30-6.2,44.8c2.1,4.8,4.3,9.6,6.5,14.4c10,22,20.3,44.8,27,69.8
				c2,8.9,1,16.8-1,25.9c-5.3,16.7-18.1,30.5-38.2,41.1c-4.7,2.6-9.8,4.9-15.2,7.4c-21.7,10.1-46.4,21.5-46.4,48.3
				c-0.9,16.1,7.9,33.2,23.8,45.6c11.4,9,25.4,13.6,38.9,18.2l0.2,0.1c12.1,4,22.9,8.2,32.8,17.5H795.2c-4-8.7-9.3-17.4-14.3-25.8
				c-14.3-23.8-29.1-48.4-20.3-76.5c1-2,2-4.1,3-7.1c3.5-8,8.7-14,18-21c7.7-5.8,15.7-9.9,25.1-13.1c14.2-4.6,28.9-7.7,43.1-10.7
				c14.3-3,29-6.1,43.3-10.7l0.1-0.1c6-3,12.3-6.1,18.4-10.3c7.9-5.6,10.8-13.7,12.6-21c4.4-25.5-6.3-47.6-16.6-69
				c-4.2-8.8-8.6-17.9-11.9-27.1c-3.8-12.2-7.1-25.6-6.1-40.3c2-17.1,12.1-32,26.9-39.9c40-20.5,84.5-13.5,127.6-6.7
				c3.7,0.6,7.5,1.2,11.1,1.7c17,3.6,35.1,6.9,54.5,4.9V408.5z M1109.8,353.6c-19.1,2-37.2-1.2-54.1-4.8c-3.7-0.6-7.4-1.1-11.2-1.7
				c-43.4-6.8-88.3-13.8-128.8,6.9c-15.4,8.2-25.9,23.7-28,41.5c-1.1,15,2.3,28.6,6.2,41.1c3.3,9.3,7.7,18.5,12,27.3
				c10.2,21.1,20.7,42.9,16.5,67.7c-1.7,6.8-4.4,14.5-11.8,19.7c-6,4-12.8,6.9-18.7,9.9c-14.2,4.5-28.2,7.9-42.5,10.8
				c-14.3,3-29,6.1-43.3,10.7c-9.7,3.2-17.9,7.5-25.7,13.4c-7,5.2-14.1,11.5-18.7,21.9c-1,3-2,4.9-3,7l-0.1,0.1
				c-9.1,29,5.9,54,20.5,78.2c4.9,8.1,9.9,16.5,13.8,24.7H562.5c-8.4-11.7-14.8-26.5-19.1-43.9c-2.9-11.9-4.5-29.3,4.6-44.5
				c11.8-19.9,34.7-32.1,70.1-37.4c7.6-1.1,15.5-1.8,23-2.5c10.1-0.9,20.5-1.9,30.7-3.8c10-1.9,17.7-4.4,24.2-7.7
				c8.1-4.2,14.6-10.3,19.4-15.2c11.2-11.6,22.4-22.6,35.9-31c14.1-8.8,29.7-13.3,47.2-18l0.4-0.1c13.1-3.5,28-7.4,36.4-19.4
				c10.5-14.9,1.8-31.8-7.4-43.3c-2.6-3.3-5.4-6.6-8.1-9.9c-7.6-9.2-15.5-18.7-21.3-29.3c-8.3-15.3-13.9-31.3-16.6-47.8
				c-5-30.1,3.2-57.4,21.9-72.9c24.4-20.2,58.2-18.4,85-14.6c13.6,2,27.4,4.7,40.7,7.4c20.8,4.2,42.2,8.5,63.8,9.9
				c35.2,2.3,69.3-4.1,98.4-18.4c6.2-3.1,12.3-6.6,18.2-10.4V353.6z"/>
		</g>
	</g>
</g>
</svg>
