<?xml version="1.0" encoding="utf-8"?>
<!-- Generator: Adobe Illustrator 19.0.0, SVG Export Plug-In . SVG Version: 6.00 Build 0)  -->
<svg version="1.1" id="Layer_1" xmlns="http://www.w3.org/2000/svg" xmlns:xlink="http://www.w3.org/1999/xlink" x="0px" y="0px"
	 viewBox="-936.4 986.8 66 28.4" style="enable-background:new -936.4 986.8 66 28.4;" xml:space="preserve">
<style type="text/css">
	.st0{fill:#FFFFFF;}
</style>
<g id="XMLID_2_">
	<path id="XMLID_18_" class="st0" d="M-934.8,1003.8c-0.1,0-0.2,0.1-0.3,0.3l-0.5,3.6l0.5,3.5c0,0.2,0.1,0.3,0.3,0.3
		c0.1,0,0.2-0.1,0.3-0.3l0.6-3.6l-0.6-3.6C-934.5,1003.9-934.6,1003.8-934.8,1003.8L-934.8,1003.8z M-932.1,1001.8
		c0-0.2-0.1-0.3-0.3-0.3c-0.1,0-0.3,0.1-0.3,0.3l-0.6,5.8l0.6,5.7c0,0.2,0.1,0.3,0.3,0.3c0.1,0,0.2-0.1,0.3-0.3l0.7-5.7
		L-932.1,1001.8z M-922,996.4c-0.3,0-0.5,0.2-0.5,0.5l-0.5,10.7l0.5,6.9c0,0.3,0.2,0.5,0.5,0.5c0.3,0,0.5-0.2,0.5-0.5l0.6-6.9
		l-0.6-10.7C-921.6,996.6-921.8,996.4-922,996.4L-922,996.4z M-927.2,1000.1c-0.2,0-0.4,0.2-0.4,0.4l-0.6,7.1l0.6,6.9
		c0,0.2,0.2,0.4,0.4,0.4s0.4-0.2,0.4-0.4l0.7-6.9l-0.7-7.1C-926.9,1000.3-927,1000.1-927.2,1000.1z M-916.7,1015.1
		c0.3,0,0.6-0.3,0.6-0.6l0.5-6.8l-0.5-14.3c0-0.3-0.3-0.6-0.6-0.6s-0.6,0.3-0.6,0.6l-0.4,14.3l0.4,6.8
		C-917.3,1014.8-917.1,1015.1-916.7,1015.1z M-905.9,1015.1c0.4,0,0.8-0.4,0.8-0.8l0,0l0,0l0.3-6.6l-0.3-16.5c0-0.5-0.4-0.8-0.8-0.8
		s-0.8,0.4-0.8,0.8l-0.3,16.4l0.3,6.6C-906.7,1014.7-906.3,1015.1-905.9,1015.1z M-911.3,1015.1c0.4,0,0.7-0.3,0.7-0.7l0,0l0.4-6.7
		l-0.4-14.4c0-0.4-0.3-0.7-0.7-0.7c-0.4,0-0.7,0.3-0.7,0.7l-0.4,14.4l0.4,6.7C-912,1014.8-911.7,1015.1-911.3,1015.1L-911.3,1015.1z
		 M-924.6,1015c0.2,0,0.4-0.2,0.4-0.4l0.6-6.9l-0.6-6.7c0-0.2-0.2-0.4-0.4-0.4s-0.4,0.2-0.4,0.4l-0.5,6.6l0.5,6.9
		C-925.1,1014.8-924.9,1015-924.6,1015z M-929.8,1014.6c0.2,0,0.3-0.1,0.3-0.3l0.7-6.7l-0.7-6.9c0-0.2-0.2-0.3-0.3-0.3
		c-0.2,0-0.3,0.1-0.3,0.3l-0.6,6.9l0.6,6.7C-930.1,1014.5-930,1014.6-929.8,1014.6z M-908.6,993c-0.4,0-0.8,0.3-0.8,0.8l-0.3,13.9
		l0.3,6.7c0,0.4,0.3,0.8,0.8,0.8c0.4,0,0.8-0.3,0.8-0.8l0,0l0.4-6.7l-0.4-13.9C-907.9,993.3-908.2,993-908.6,993L-908.6,993z
		 M-919.4,1015.1c0.3,0,0.5-0.2,0.5-0.5l0.5-6.9l-0.5-13.2c0-0.3-0.3-0.5-0.5-0.5c-0.3,0-0.5,0.2-0.5,0.5l-0.5,13.2l0.5,6.9
		C-919.9,1014.8-919.7,1015.1-919.4,1015.1z M-913.4,1014.4L-913.4,1014.4l0.5-6.8l-0.5-14.8c0-0.4-0.3-0.7-0.7-0.7
		c-0.4,0-0.6,0.3-0.7,0.7l-0.4,14.8l0.4,6.8c0,0.4,0.3,0.6,0.7,0.6C-913.7,1015.1-913.4,1014.8-913.4,1014.4L-913.4,1014.4z
		 M-878.5,999.1c-1.1,0-2.1,0.2-3.1,0.6c-0.6-7.2-6.7-12.9-14-12.9c-1.8,0-3.6,0.4-5.1,1c-0.6,0.2-0.8,0.5-0.8,0.9v25.4
		c0,0.5,0.4,0.9,0.9,0.9c0,0,22,0,22.2,0c4.4,0,8-3.6,8-8C-870.5,1002.7-874.1,999.1-878.5,999.1L-878.5,999.1z M-903.2,988.8
		c-0.5,0-0.9,0.4-0.9,0.9l-0.4,18l0.4,6.5c0,0.5,0.4,0.9,0.9,0.9s0.9-0.4,0.9-0.9l0,0l0.4-6.5l-0.4-18
		C-902.3,989.2-902.7,988.8-903.2,988.8L-903.2,988.8z"/>
</g>
</svg>
