<?xml version="1.0" encoding="utf-8"?>
<!-- Generator: Adobe Illustrator 19.0.0, SVG Export Plug-In . SVG Version: 6.00 Build 0)  -->
<svg version="1.1" id="Capa_1" xmlns="http://www.w3.org/2000/svg" xmlns:xlink="http://www.w3.org/1999/xlink" x="0px" y="0px"
	 viewBox="-950 951.6 98.4 98.4" style="enable-background:new -950 951.6 98.4 98.4;" xml:space="preserve">
<style type="text/css">
	.st0{fill:#FFFFFF;}
</style>
<g>
	<g id="Layer_1_1_">
		<path class="st0" d="M-900.8,951.6c-27.2,0-49.2,22-49.2,49.2c0,27.2,22,49.2,49.2,49.2s49.2-22,49.2-49.2
			C-851.6,973.6-873.7,951.6-900.8,951.6z M-881.9,1024.2c-0.8,0-1.3-0.3-2.1-0.7c-7.1-4.3-16-6.6-25.4-6.6
			c-5.3,0-10.6,0.7-15.5,1.7c-0.8,0.2-1.8,0.5-2.4,0.5c-1.9,0-3.1-1.5-3.1-3.1c0-2.1,1.2-3.1,2.7-3.4c6.1-1.4,12.1-2.2,18.4-2.2
			c10.8,0,20.4,2.5,28.6,7.4c1.2,0.7,1.9,1.4,1.9,3.3C-878.8,1022.9-880.3,1024.2-881.9,1024.2z M-876.5,1011.2
			c-1.1,0-1.7-0.4-2.5-0.9c-8-4.7-19.1-7.9-31.2-7.9c-6.2,0-11.6,0.9-16.1,2.1c-1,0.3-1.5,0.5-2.4,0.5c-2.1,0-3.8-1.7-3.8-3.9
			c0-2.1,1-3.5,3.1-4.1c5.5-1.5,11.2-2.7,19.4-2.7c12.9,0,25.3,3.2,35.1,9.1c1.6,0.9,2.2,2.1,2.2,3.9
			C-872.7,1009.4-874.4,1011.2-876.5,1011.2z M-870.4,996c-1,0-1.6-0.2-2.5-0.8c-8.9-5.3-22.7-8.3-36.1-8.3
			c-6.7,0-13.4,0.7-19.6,2.4c-0.7,0.2-1.6,0.5-2.5,0.5c-2.6,0-4.6-2.1-4.6-4.7c0-2.7,1.7-4.2,3.4-4.7c7-2.1,14.8-3,23.3-3
			c14.4,0,29.6,3,40.7,9.5c1.5,0.8,2.5,2.1,2.5,4.5C-865.8,994.1-867.9,996-870.4,996z"/>
	</g>
</g>
</svg>
