<?xml version="1.0" encoding="utf-8"?>
<!-- Generator: Adobe Illustrator 19.0.0, SVG Export Plug-In . SVG Version: 6.00 Build 0)  -->
<svg version="1.1" id="Capa_1" xmlns="http://www.w3.org/2000/svg" xmlns:xlink="http://www.w3.org/1999/xlink" x="0px" y="0px"
	 viewBox="-49 226.3 512 341.3" style="enable-background:new -49 226.3 512 341.3;" xml:space="preserve">
<style type="text/css">
	.st0{fill:#F0F0F0;}
	.st1{fill:#D80027;}
	.st2{fill:#0052B4;}
</style>
<rect x="-49" y="226.3" class="st0" width="512" height="341.3"/>
<polygon class="st1" points="239,226.3 175,226.3 175,365 -49,365 -49,429 175,429 175,567.7 239,567.7 239,429 463,429 463,365 
	239,365 "/>
<g>
	<polygon class="st2" points="344.8,456.4 463,522 463,456.4 	"/>
	<polygon class="st2" points="262.7,456.4 463,567.7 463,536.2 319.3,456.4 	"/>
	<polygon class="st2" points="409.6,567.7 262.7,486 262.7,567.7 	"/>
</g>
<polygon class="st0" points="262.7,456.4 463,567.7 463,536.2 319.3,456.4 "/>
<polygon class="st1" points="262.7,456.4 463,567.7 463,536.2 319.3,456.4 "/>
<g>
	<polygon class="st2" points="41.3,456.4 -49,506.5 -49,456.4 	"/>
	<polygon class="st2" points="151.3,470.5 151.3,567.7 -23.5,567.7 	"/>
</g>
<polygon class="st1" points="94.7,456.4 -49,536.2 -49,567.7 -49,567.7 151.3,456.4 "/>
<g>
	<polygon class="st2" points="69.2,337.6 -49,272 -49,337.6 	"/>
	<polygon class="st2" points="151.3,337.6 -49,226.3 -49,257.8 94.7,337.6 	"/>
	<polygon class="st2" points="4.4,226.3 151.3,308 151.3,226.3 	"/>
</g>
<polygon class="st0" points="151.3,337.6 -49,226.3 -49,257.8 94.7,337.6 "/>
<polygon class="st1" points="151.3,337.6 -49,226.3 -49,257.8 94.7,337.6 "/>
<g>
	<polygon class="st2" points="372.7,337.6 463,287.4 463,337.6 	"/>
	<polygon class="st2" points="262.7,323.5 262.7,226.3 437.5,226.3 	"/>
</g>
<polygon class="st1" points="319.3,337.6 463,257.8 463,226.3 463,226.3 262.7,337.6 "/>
</svg>
