<svg version="1.1" id="Layer_1" xmlns="http://www.w3.org/2000/svg" x="0" y="0" viewBox="-383 145 512 512" xml:space="preserve">
  <style>.st0{fill:#fff}</style>
  <path class="st0" d="M-127 194.5c67.3 0 75.2.3 101.8 1.5 24.6 1.1 37.9 5.2 46.8 8.7 10.9 4 20.8 10.5 29 18.8 8.4 8.1 14.8 18 18.8 29 3.5 8.9 7.6 22.2 8.7 46.8 1.2 26.6 1.5 34.5 1.5 101.8s-.3 75.2-1.5 101.8c-1.1 24.6-5.2 37.9-8.7 46.8-8.5 22-25.8 39.3-47.8 47.8-8.9 3.5-22.2 7.6-46.8 8.7-26.6 1.2-34.5 1.5-101.8 1.5s-75.2-.3-101.8-1.5c-24.6-1.1-37.9-5.2-46.8-8.7-10.9-4-20.8-10.5-29-18.8-8.4-8.1-14.8-18-18.8-29-3.4-8.9-7.6-22.2-8.7-46.8-1.2-26.6-1.5-34.5-1.5-101.8s.3-75.2 1.5-101.8c1.1-24.6 5.2-37.9 8.7-46.8 4-10.9 10.5-20.8 18.8-29 8.1-8.4 18-14.8 29-18.8 8.9-3.5 22.2-7.6 46.8-8.7 26.6-1.3 34.5-1.5 101.8-1.5m0-45.4c-68.4 0-77 .3-103.9 1.5-26.8 1.2-45.1 5.5-61.2 11.7-16.8 6.3-32 16.2-44.6 29.1-12.8 12.6-22.7 27.8-29.1 44.6-6.2 16-10.5 34.3-11.7 61.2-1.2 26.9-1.5 35.4-1.5 103.9s.3 77 1.5 103.9c1.2 26.8 5.5 45.1 11.7 61.2 6.3 16.8 16.2 32 29.1 44.6 12.6 12.8 27.8 22.7 44.6 29.1 16 6.2 34.3 10.5 61.2 11.7 26.9 1.2 35.4 1.5 103.9 1.5s77-.3 103.9-1.5c26.8-1.2 45.1-5.5 61.2-11.7 33.8-13.1 60.6-39.8 73.7-73.7 6.2-16 10.5-34.3 11.7-61.2 1.2-26.9 1.5-35.4 1.5-103.9s-.3-77-1.5-103.9c-1.2-26.8-5.5-45.1-11.7-61.2-6.3-16.8-16.2-32-29.1-44.6-12.6-12.8-27.8-22.7-44.6-29.1-16-6.2-34.3-10.5-61.2-11.7-26.9-1.2-35.5-1.5-103.9-1.5z"/><path class="st0" d="M-127 271.6c-71.4 0-129.4 57.9-129.4 129.4s57.9 129.4 129.4 129.4S2.4 472.4 2.4 401s-58-129.4-129.4-129.4zm0 213.4c-46.4 0-84-37.6-84-84s37.6-84 84-84 84 37.6 84 84-37.6 84-84 84z"/>
  <circle class="st0" cx="7.5" cy="266.5" r="30.2"/>
</svg>
