<?xml version="1.0" encoding="utf-8"?>
<!-- Generator: Adobe Illustrator 19.0.0, SVG Export Plug-In . SVG Version: 6.00 Build 0)  -->
<svg version="1.1" id="Layer_1" xmlns="http://www.w3.org/2000/svg" xmlns:xlink="http://www.w3.org/1999/xlink" x="0px" y="0px"
	 viewBox="-555 317 168 168" style="enable-background:new -555 317 168 168;" xml:space="preserve">
<style type="text/css">
	.st0{fill:#F3F3F3;}
</style>
<path class="st0" d="M-471,317.3c-46.2,0-83.7,37.5-83.7,83.7c0,46.3,37.5,83.7,83.7,83.7c46.3,0,83.7-37.5,83.7-83.7
	C-387.3,354.8-424.8,317.3-471,317.3C-471,317.3-471,317.3-471,317.3z M-432.6,438.1c-1.5,2.5-4.7,3.2-7.2,1.7
	c-19.7-12-44.4-14.7-73.6-8.1c-2.8,0.6-5.6-1.1-6.2-3.9c-0.6-2.8,1.1-5.6,3.9-6.2c31.9-7.3,59.3-4.1,81.3,9.3
	C-431.9,432.4-431.1,435.6-432.6,438.1z M-422.4,415.3c-1.9,3.1-5.9,4-9,2.2c-22.5-13.8-56.8-17.8-83.4-9.8c-3.5,1-7.1-0.9-8.1-4.4
	c-1-3.5,0.9-7.1,4.4-8.1c30.4-9.2,68.2-4.8,94.1,11.1C-421.4,408.2-420.5,412.2-422.4,415.3L-422.4,415.3z M-421.5,391.5
	c-27-16-71.5-17.5-97.3-9.7c-4.1,1.3-8.5-1.1-9.8-5.2c-1.3-4.1,1.1-8.5,5.2-9.8c29.6-9,78.8-7.2,109.8,11.2c3.7,2.2,5,7,2.7,10.7
	C-412.9,392.5-417.8,393.7-421.5,391.5L-421.5,391.5z"/>
</svg>
