<?xml version="1.0" encoding="utf-8"?>
<!-- Generator: Adobe Illustrator 19.0.0, SVG Export Plug-In . SVG Version: 6.00 Build 0)  -->
<svg version="1.1" id="Layer_1" xmlns="http://www.w3.org/2000/svg" xmlns:xlink="http://www.w3.org/1999/xlink" x="0px" y="0px"
	 viewBox="-543 305 192 192" style="enable-background:new -543 305 192 192;" xml:space="preserve">
<style type="text/css">
	.st0{fill:#F3F3F3;}
</style>
<path id="XMLID_1_" class="st0" d="M-362.7,358.4c-2-7.6-8-13.6-15.6-15.7C-392,339-447,339-447,339s-55,0-68.8,3.7
	c-7.6,2-13.5,8-15.6,15.7C-535,372.2-535,401-535,401s0,28.8,3.7,42.6c2,7.6,8,13.6,15.6,15.7C-502,463-447,463-447,463
	s55,0,68.8-3.7c7.6-2,13.5-8,15.6-15.7c3.6-13.8,3.6-42.6,3.6-42.6S-359,372.2-362.7,358.4z M-465,427.2v-52.4l46,26.2L-465,427.2z"
	/>
</svg>
